<svg id="Color" enable-background="new 0 0 24 24" height="512" viewBox="0 0 24 24" width="512" xmlns="http://www.w3.org/2000/svg"><path d="m13.5 19.5h-3c-.414 0-.75.336-.75.75v2.5c0 .689.56 1.25 1.25 1.25h2c.689 0 1.25-.56 1.25-1.25v-2.5c0-.414-.336-.75-.75-.75z" fill="#607d8b"/><path d="m20.864 19.771-4.325-5.805c-.143-.191-.367-.303-.605-.302l-7.9.034c-.238.001-.462.115-.602.308l-4.275 5.844c-.167.228-.191.531-.062.783s.388.41.671.409l16.5-.072c.283-.001.541-.162.667-.415.127-.253.1-.557-.069-.784z" fill="#388e3c"/><path d="m19.847 13.846-4.338-5.691c-.142-.186-.363-.295-.597-.295h-5.824c-.234 0-.455.109-.597.295l-4.338 5.691c-.173.227-.202.531-.076.787.127.256.387.417.672.417h14.5c.285 0 .545-.161.672-.417.128-.256.098-.561-.074-.787z" fill="#43a047"/><path d="m17.864 7.869-5.25-7.5c-.28-.4-.948-.4-1.229 0l-5.25 7.5c-.161.229-.18.529-.051.777.13.249.386.404.666.404h10.5c.28 0 .536-.155.665-.403.129-.249.11-.548-.051-.778z" fill="#66bb6a"/><path d="m12 21.006-2.25.01v1.734c0 .689.56 1.25 1.25 1.25h1z" fill="#546d79"/><path d="m12 15.05h-5.331l-3.511 4.8c-.167.228-.191.531-.062.783.128.251.387.409.669.409h.003l5.984-.026 2.25-.01v-5.956z" fill="#317c34"/><path d="m12 9.05h-4.191l-3.656 4.796c-.173.227-.202.531-.076.787.127.256.387.417.672.417h1.919 5.332z" fill="#3a8b3e"/><path d="m12 .069c-.237 0-.474.1-.614.3l-5.25 7.5c-.161.229-.18.529-.051.777.129.249.385.404.665.404h1.059 4.191z" fill="#59a35c"/></svg>